<svg width="200" height="34" viewBox="0 0 200 34" fill="none" xmlns="http://www.w3.org/2000/svg">
<path d="M0.0800002 26V3.824H13.296L12.752 7.568H5.328V13.456H11.792V17.2H5.328V26H0.0800002ZM29.2688 17.168C29.2688 17.872 29.2368 18.48 29.1728 18.992H18.6448C18.8154 20.4213 19.2208 21.424 19.8608 22C20.5008 22.576 21.3861 22.864 22.5168 22.864C23.1994 22.864 23.8608 22.7467 24.5008 22.512C25.1408 22.256 25.8341 21.872 26.5808 21.36L28.6608 24.176C26.6768 25.7547 24.4688 26.544 22.0368 26.544C19.2848 26.544 17.1728 25.7333 15.7008 24.112C14.2288 22.4907 13.4928 20.3147 13.4928 17.584C13.4928 15.856 13.8021 14.3093 14.4208 12.944C15.0394 11.5573 15.9461 10.4693 17.1408 9.68C18.3354 8.86933 19.7648 8.464 21.4288 8.464C23.8821 8.464 25.8021 9.232 27.1888 10.768C28.5754 12.304 29.2688 14.4373 29.2688 17.168ZM24.3088 15.728C24.2661 13.1253 23.3488 11.824 21.5568 11.824C20.6821 11.824 19.9994 12.144 19.5088 12.784C19.0394 13.424 18.7514 14.48 18.6448 15.952H24.3088V15.728ZM36.621 26.544C35.149 26.544 33.997 26.128 33.165 25.296C32.3543 24.4427 31.949 23.2373 31.949 21.68V2.256L37.005 1.712V21.488C37.005 22.192 37.293 22.544 37.869 22.544C38.1677 22.544 38.445 22.4907 38.701 22.384L39.693 25.968C38.7757 26.352 37.7517 26.544 36.621 26.544ZM46.665 9.008V26H41.609V9.008H46.665ZM44.105 0.0479984C44.9797 0.0479984 45.6943 0.325332 46.249 0.879999C46.825 1.41333 47.113 2.096 47.113 2.928C47.113 3.76 46.825 4.45333 46.249 5.008C45.6943 5.54133 44.9797 5.808 44.105 5.808C43.2303 5.808 42.5157 5.54133 41.961 5.008C41.4063 4.45333 41.129 3.76 41.129 2.928C41.129 2.096 41.4063 1.41333 41.961 0.879999C42.5157 0.325332 43.2303 0.0479984 44.105 0.0479984ZM60.2403 8.464C62.3736 8.464 63.9629 9.25333 65.0083 10.832C66.0536 12.4107 66.5763 14.6187 66.5763 17.456C66.5763 19.2053 66.2989 20.7733 65.7443 22.16C65.2109 23.5253 64.4323 24.6027 63.4083 25.392C62.3843 26.16 61.1896 26.544 59.8243 26.544C58.1176 26.544 56.7416 25.9573 55.6963 24.784V32.56L50.6403 33.104V9.008H55.0883L55.3443 10.896C56.0056 10.064 56.7629 9.456 57.6163 9.072C58.4696 8.66667 59.3443 8.464 60.2403 8.464ZM58.2883 22.832C60.3149 22.832 61.3283 21.0613 61.3283 17.52C61.3283 15.5147 61.1043 14.128 60.6563 13.36C60.2083 12.5707 59.5363 12.176 58.6403 12.176C58.0643 12.176 57.5203 12.3467 57.0083 12.688C56.5176 13.0293 56.0803 13.52 55.6963 14.16V21.328C56.3789 22.3307 57.2429 22.832 58.2883 22.832ZM84.55 17.168C84.55 17.872 84.518 18.48 84.454 18.992H73.926C74.0967 20.4213 74.502 21.424 75.142 22C75.782 22.576 76.6673 22.864 77.798 22.864C78.4807 22.864 79.142 22.7467 79.782 22.512C80.422 22.256 81.1153 21.872 81.862 21.36L83.942 24.176C81.958 25.7547 79.75 26.544 77.318 26.544C74.566 26.544 72.454 25.7333 70.982 24.112C69.51 22.4907 68.774 20.3147 68.774 17.584C68.774 15.856 69.0833 14.3093 69.702 12.944C70.3207 11.5573 71.2273 10.4693 72.422 9.68C73.6167 8.86933 75.046 8.464 76.71 8.464C79.1633 8.464 81.0833 9.232 82.47 10.768C83.8567 12.304 84.55 14.4373 84.55 17.168ZM79.59 15.728C79.5473 13.1253 78.63 11.824 76.838 11.824C75.9633 11.824 75.2807 12.144 74.79 12.784C74.3207 13.424 74.0327 14.48 73.926 15.952H79.59V15.728ZM104.68 3.28C107.539 3.28 110.003 4.18667 112.072 6L109.416 8.784C108.627 8.18667 107.891 7.76 107.208 7.504C106.547 7.22667 105.779 7.088 104.904 7.088C103.261 7.088 101.949 7.73867 100.968 9.04C99.9867 10.32 99.496 12.272 99.496 14.896C99.496 17.7333 99.8693 19.7493 100.616 20.944C101.363 22.1173 102.525 22.704 104.104 22.704C105.213 22.704 106.216 22.4587 107.112 21.968V16.944H104.232L103.72 13.232H112.2V24.208C111.048 24.9547 109.779 25.5307 108.392 25.936C107.005 26.3413 105.619 26.544 104.232 26.544C100.861 26.544 98.3227 25.5627 96.616 23.6C94.9093 21.616 94.056 18.7147 94.056 14.896C94.056 12.464 94.5147 10.3733 95.432 8.624C96.3707 6.87467 97.64 5.552 99.24 4.656C100.861 3.73867 102.675 3.28 104.68 3.28ZM129.113 21.072C129.113 21.712 129.198 22.1813 129.369 22.48C129.561 22.7787 129.86 23.0027 130.265 23.152L129.209 26.448C128.164 26.3627 127.31 26.1387 126.649 25.776C125.988 25.392 125.476 24.7947 125.113 23.984C124.004 25.6907 122.297 26.544 119.993 26.544C118.308 26.544 116.964 26.0533 115.961 25.072C114.958 24.0907 114.457 22.8107 114.457 21.232C114.457 19.376 115.14 17.9573 116.505 16.976C117.87 15.9947 119.844 15.504 122.425 15.504H124.153V14.768C124.153 13.7653 123.94 13.0827 123.513 12.72C123.086 12.336 122.34 12.144 121.273 12.144C120.718 12.144 120.046 12.2293 119.257 12.4C118.468 12.5493 117.657 12.7627 116.825 13.04L115.673 9.712C116.74 9.30667 117.828 8.99733 118.937 8.784C120.068 8.57067 121.113 8.464 122.073 8.464C124.505 8.464 126.286 8.96533 127.417 9.968C128.548 10.9707 129.113 12.4747 129.113 14.48V21.072ZM121.465 22.928C122.617 22.928 123.513 22.384 124.153 21.296V18.288H122.905C121.753 18.288 120.889 18.4907 120.313 18.896C119.758 19.3013 119.481 19.9307 119.481 20.784C119.481 21.4667 119.652 22 119.993 22.384C120.356 22.7467 120.846 22.928 121.465 22.928ZM142.772 8.464C144.799 8.464 146.356 9.264 147.444 10.864C148.532 12.4427 149.076 14.6613 149.076 17.52C149.076 19.2693 148.799 20.8267 148.244 22.192C147.711 23.5573 146.932 24.624 145.908 25.392C144.906 26.16 143.711 26.544 142.324 26.544C141.407 26.544 140.564 26.352 139.796 25.968C139.05 25.584 138.41 25.0507 137.876 24.368L137.62 26H133.14V2.256L138.196 1.712V10.736C138.708 10.032 139.359 9.47733 140.148 9.072C140.959 8.66667 141.834 8.464 142.772 8.464ZM140.852 22.864C142.836 22.864 143.828 21.0827 143.828 17.52C143.828 15.4933 143.594 14.096 143.124 13.328C142.655 12.56 141.972 12.176 141.076 12.176C139.946 12.176 138.986 12.8373 138.196 14.16V21.232C138.516 21.744 138.9 22.1493 139.348 22.448C139.818 22.7253 140.319 22.864 140.852 22.864ZM161.45 8.528C162.069 8.528 162.634 8.60267 163.146 8.752L162.346 13.648C161.706 13.4987 161.194 13.424 160.81 13.424C159.807 13.424 159.039 13.776 158.506 14.48C157.994 15.1627 157.589 16.1973 157.29 17.584V26H152.234V9.008H156.65L157.066 12.304C157.45 11.1307 158.026 10.2133 158.794 9.552C159.583 8.86933 160.469 8.528 161.45 8.528ZM170.134 9.008V26H165.078V9.008H170.134ZM167.574 0.0479984C168.448 0.0479984 169.163 0.325332 169.718 0.879999C170.294 1.41333 170.582 2.096 170.582 2.928C170.582 3.76 170.294 4.45333 169.718 5.008C169.163 5.54133 168.448 5.808 167.574 5.808C166.699 5.808 165.984 5.54133 165.43 5.008C164.875 4.45333 164.598 3.76 164.598 2.928C164.598 2.096 164.875 1.41333 165.43 0.879999C165.984 0.325332 166.699 0.0479984 167.574 0.0479984ZM188.925 17.168C188.925 17.872 188.893 18.48 188.829 18.992H178.301C178.472 20.4213 178.877 21.424 179.517 22C180.157 22.576 181.042 22.864 182.173 22.864C182.856 22.864 183.517 22.7467 184.157 22.512C184.797 22.256 185.49 21.872 186.237 21.36L188.317 24.176C186.333 25.7547 184.125 26.544 181.693 26.544C178.941 26.544 176.829 25.7333 175.357 24.112C173.885 22.4907 173.149 20.3147 173.149 17.584C173.149 15.856 173.458 14.3093 174.077 12.944C174.696 11.5573 175.602 10.4693 176.797 9.68C177.992 8.86933 179.421 8.464 181.085 8.464C183.538 8.464 185.458 9.232 186.845 10.768C188.232 12.304 188.925 14.4373 188.925 17.168ZM183.965 15.728C183.922 13.1253 183.005 11.824 181.213 11.824C180.338 11.824 179.656 12.144 179.165 12.784C178.696 13.424 178.408 14.48 178.301 15.952H183.965V15.728ZM196.277 26.544C194.805 26.544 193.653 26.128 192.821 25.296C192.011 24.4427 191.605 23.2373 191.605 21.68V2.256L196.661 1.712V21.488C196.661 22.192 196.949 22.544 197.525 22.544C197.824 22.544 198.101 22.4907 198.357 22.384L199.349 25.968C198.432 26.352 197.408 26.544 196.277 26.544Z" fill="black"/>
</svg>
